<svg version="1.1" id="Layer_1" xmlns="http://www.w3.org/2000/svg" xmlns:xlink="http://www.w3.org/1999/xlink" x="0px" y="0px"
	 width="100%" viewBox="0 0 496 496" enable-background="new 0 0 496 496" xml:space="preserve">
<path fill="#000000" opacity="1.000000" stroke="none" 
	d="
M302.098511,353.229218 
	C268.229462,370.190430 234.184769,370.858612 201.027435,353.673645 
	C168.399902,336.763306 148.741684,309.329315 143.661163,272.553772 
	C136.846008,223.222046 161.839813,177.870300 207.572113,157.734238 
	C260.809692,134.293579 323.143799,157.043198 347.841583,208.587799 
	C367.633270,249.893341 363.176147,289.381348 335.290070,325.809479 
	C326.498566,337.294037 315.221313,346.193451 302.098511,353.229218 
M147.373825,272.139893 
	C147.696075,273.939819 147.994858,275.744293 148.344025,277.538971 
	C157.110931,322.598602 195.764923,357.992828 241.498810,361.444183 
	C277.300446,364.145996 307.642303,351.835480 331.170105,324.335144 
	C360.757965,289.751587 364.143005,237.607285 338.504150,200.202057 
	C315.548706,166.711716 283.435028,150.135468 242.478653,153.240082 
	C207.744141,155.873047 181.100632,172.928574 162.405624,201.993744 
	C148.865662,223.044357 143.967148,246.342270 147.373825,272.139893 
z"/>
<path fill="#000000" opacity="1.000000" stroke="none" 
	d="
M262.987244,95.759644 
	C266.648376,95.760735 269.817383,95.650894 272.975525,95.789108 
	C278.121674,96.014320 280.229279,98.140785 280.319885,103.184631 
	C280.406616,108.012505 280.285126,112.843857 280.344513,117.672577 
	C280.399536,122.145370 278.221649,124.751678 273.816833,124.786926 
	C258.167206,124.912155 242.515411,124.903946 226.865662,124.784744 
	C222.669617,124.752792 220.577545,122.298859 220.640961,118.006905 
	C220.714752,113.011986 220.592239,108.014076 220.673203,103.019379 
	C220.759506,97.694473 222.751312,95.816574 228.517212,95.781418 
	C239.841187,95.712379 251.165848,95.760475 262.987244,95.759644 
z"/>
<path fill="#000000" opacity="1.000000" stroke="none" 
	d="
M375.922302,372.924896 
	C366.686218,381.697632 355.243896,384.792664 343.647186,387.214661 
	C337.191895,388.562836 330.523193,388.888885 323.536438,389.725159 
	C330.159332,394.223419 336.339752,398.815735 342.963593,405.154114 
	C334.823700,405.868408 328.147766,406.081390 322.131042,401.806885 
	C319.129944,399.674774 316.445923,397.142059 314.259705,394.178345 
	C309.337769,387.505981 302.179352,388.081940 295.176666,388.145691 
	C293.934296,388.156982 292.999664,388.904816 292.517059,390.103790 
	C292.330719,390.566803 292.221619,391.070648 291.977661,391.499146 
	C290.371094,394.320984 287.897095,395.934082 284.689972,396.002289 
	C283.082123,396.036499 281.900665,394.888000 281.797241,393.125427 
	C281.598358,389.735443 284.054199,388.180908 286.439453,386.589355 
	C287.383057,385.959747 288.682465,385.801392 289.174255,384.562805 
	C286.742340,379.188385 282.244354,377.586243 276.034332,379.879852 
	C266.617126,383.358002 262.775909,390.267487 265.231934,399.310944 
	C261.728851,397.798859 260.672638,394.968781 261.797699,390.109131 
	C263.735565,381.738770 277.391449,374.176636 285.398712,377.143890 
	C286.917725,377.706757 288.872437,378.512573 289.513428,379.772400 
	C291.878204,384.420135 295.918549,384.745483 300.345581,385.125427 
	C305.473511,385.565613 310.580811,386.293091 315.710358,386.815491 
	C323.063660,387.564301 327.144592,384.045013 330.342407,378.090820 
	C336.086792,367.395081 346.330627,363.071503 357.210815,359.817139 
	C357.762756,359.652069 358.464111,359.986481 360.045227,360.241364 
	C355.744385,370.743683 348.711395,378.246399 338.699677,385.103851 
	C345.983124,382.678223 351.001831,379.381165 354.884796,374.452240 
	C361.190002,366.448578 369.794220,363.049835 379.562256,361.916901 
	C380.700287,361.784882 381.899017,361.598633 383.202026,363.105377 
	C381.949097,366.887604 378.811859,369.615479 375.922302,372.924896 
z"/>
<path fill="#000000" opacity="1.000000" stroke="none" 
	d="
M189.544357,386.477936 
	C192.143997,386.169556 194.305115,386.016632 196.439209,385.688141 
	C202.417831,384.767883 208.982071,385.960876 213.123718,379.343719 
	C214.863983,376.563293 218.659714,376.016388 222.230164,376.454224 
	C232.287277,377.687531 240.853897,386.147919 240.342041,394.467987 
	C240.204956,396.696289 239.902802,398.730194 237.043182,399.278564 
	C239.090897,390.289734 234.459427,382.640076 225.346832,379.614624 
	C219.458481,377.659698 214.925217,379.533020 212.727676,384.997864 
	C214.577194,386.273041 216.577850,387.446869 218.329514,388.917297 
	C220.114883,390.416107 221.109421,392.489075 219.613342,394.652527 
	C218.067749,396.887604 215.826370,396.377472 213.803925,395.263672 
	C212.808029,394.715210 211.944168,393.876251 211.129425,393.060089 
	C209.403687,391.331329 209.539078,387.704254 205.720688,388.106964 
	C200.178375,388.691528 194.240799,387.629913 189.701950,392.119324 
	C187.925827,393.876190 186.116333,395.626007 184.549606,397.563080 
	C178.638824,404.871063 170.423126,405.642853 161.941666,405.679749 
	C161.369522,405.682220 160.795074,405.157776 159.256439,404.408112 
	C165.831696,399.280762 171.906448,394.543732 178.194260,389.640564 
	C168.791000,387.962738 159.116684,388.136597 149.905853,385.293488 
	C138.910416,381.899506 128.611908,377.491028 121.453400,367.882050 
	C120.388428,366.452576 118.776802,365.304657 119.121826,362.516327 
	C124.529434,361.704132 129.652847,363.110046 134.656906,365.106750 
	C140.725739,367.528381 145.028168,372.261902 149.405197,376.831055 
	C152.934692,380.515442 157.012344,383.190979 162.101059,384.384247 
	C152.813004,378.703583 146.508423,370.665863 142.368210,361.157532 
	C143.434082,359.749359 144.306870,359.559265 145.085953,359.842163 
	C155.987305,363.800690 166.886169,367.953827 172.301834,379.368103 
	C175.905914,386.964203 182.156158,387.304260 189.544357,386.477936 
M215.272247,390.083374 
	C214.212830,389.596130 213.361038,388.168243 211.802002,389.333313 
	C212.390091,391.233612 213.226425,392.949493 215.469727,392.676544 
	C217.695724,392.405670 216.541672,391.298126 215.272247,390.083374 
z"/>
<path fill="#000000" opacity="1.000000" stroke="none" 
	d="
M261.990356,145.387238 
	C251.189636,145.379669 240.886734,145.372543 230.583817,145.367004 
	C227.570999,145.365387 224.695679,145.096420 224.737183,141.053680 
	C224.777420,137.133423 227.510208,136.662842 230.590546,136.665421 
	C244.216766,136.676804 257.842987,136.673889 271.469208,136.657104 
	C274.568726,136.653290 277.222260,137.176086 277.271057,141.099609 
	C277.322113,145.207169 274.479584,145.393768 271.461456,145.372528 
	C268.470520,145.351486 265.479279,145.380951 261.990356,145.387238 
z"/>
<path fill="#000000" opacity="1.000000" stroke="none" 
	d="
M233.829498,126.398712 
	C244.286987,125.126274 254.397385,125.889008 264.493805,125.727974 
	C267.333893,125.682671 268.795258,127.513634 268.971161,130.080948 
	C269.166229,132.927780 267.622406,135.145844 264.725861,135.212112 
	C255.114029,135.432037 245.485886,135.594315 235.882996,135.249435 
	C231.652679,135.097504 230.686630,130.960464 233.829498,126.398712 
z"/>
<path fill="#000000" opacity="1.000000" stroke="none" 
	d="
M261.623871,347.186462 
	C244.684402,348.168488 228.614822,346.794922 213.383575,339.630707 
	C188.038040,327.709076 171.308044,308.230072 163.941422,281.429413 
	C152.650101,240.350204 169.719376,198.511688 207.176346,178.204208 
	C238.616150,161.158936 270.880371,162.102448 300.942139,182.073364 
	C330.442169,201.671097 343.932892,230.383209 341.055908,265.533386 
	C337.645569,307.200195 305.502747,340.792267 265.506531,346.421509 
	C264.355835,346.583466 263.225861,346.892670 261.623871,347.186462 
M242.061600,233.079086 
	C242.025925,231.157242 240.802399,232.006165 240.056458,232.333389 
	C233.936249,235.018112 230.791122,239.569855 231.093811,246.425507 
	C231.216965,249.215027 231.489090,252.049057 227.036636,252.252151 
	C220.007675,252.572830 217.737549,256.857361 220.401962,263.828186 
	C231.157257,261.706696 231.157623,261.706696 231.159760,273.067627 
	C231.160721,278.118408 231.159912,283.169159 231.159912,288.456940 
	C231.924942,288.156403 232.577713,288.012573 233.106567,287.674744 
	C238.274719,284.373169 240.634171,279.736237 240.820084,273.505432 
	C241.215973,260.236877 239.473221,246.905899 242.061600,233.079086 
M264.523376,297.633820 
	C265.972473,297.980743 267.444733,298.251892 268.866882,298.686920 
	C277.978912,301.474304 277.978699,301.487762 282.199585,292.857910 
	C282.327637,292.596069 282.215790,292.216858 282.215790,291.926483 
	C265.718597,279.017426 238.522812,286.256470 229.111572,301.122833 
	C240.568481,297.308899 251.915070,295.294098 264.523376,297.633820 
M252.919128,227.547333 
	C260.813934,219.585175 268.620911,223.603775 276.450714,228.092682 
	C278.755646,224.110596 280.905151,220.397018 283.056213,216.680771 
	C264.627289,206.367157 247.637100,219.091492 249.561020,240.192886 
	C249.662064,235.559479 250.203827,231.638474 252.919128,227.547333 
M241.689072,225.599640 
	C246.118866,224.242523 248.974594,221.471741 249.980103,216.795090 
	C247.224365,216.287384 244.796509,215.864502 242.379181,215.388168 
	C239.780609,214.876114 237.206390,214.227509 234.596146,213.789993 
	C227.293091,212.565842 220.366119,217.294907 218.830658,224.656250 
	C222.618652,223.251877 226.324661,223.467300 230.052597,224.607346 
	C233.573441,225.684082 237.193253,226.032166 241.689072,225.599640 
M249.677765,251.455902 
	C249.677765,249.862610 249.677765,248.269318 249.677765,246.676025 
	C249.621048,246.683090 249.564316,246.690140 249.507599,246.697189 
	C249.507599,251.281693 249.507599,255.866196 249.507599,261.288666 
	C257.319672,255.809891 264.109711,257.236511 270.618286,263.303680 
	C273.342834,259.169464 275.842926,255.375870 278.169189,251.846024 
	C273.012817,250.162689 268.396667,247.654663 263.015442,248.432922 
	C257.598267,249.216385 254.453461,253.485199 250.655945,256.742737 
	C249.427048,254.927292 249.773529,253.560349 249.677765,251.455902 
z"/>
</svg>