<?xml version="1.0" standalone="no"?>
<!DOCTYPE svg PUBLIC "-//W3C//DTD SVG 20010904//EN"
 "http://www.w3.org/TR/2001/REC-SVG-20010904/DTD/svg10.dtd">
<svg version="1.0" xmlns="http://www.w3.org/2000/svg"
 width="57.000000pt" height="72.000000pt" viewBox="0 0 57.000000 72.000000"
 preserveAspectRatio="xMidYMid meet">
<metadata>
Created by potrace 1.16, written by Peter Selinger 2001-2019
</metadata>
<g transform="translate(0.000000,72.000000) scale(0.100000,-0.100000)"
fill="#000000" stroke="none">
<path d="M265 710 c3 -5 1 -10 -5 -10 -6 0 -8 -6 -4 -12 4 -7 4 -10 -1 -6 -11
11 -36 -12 -28 -25 3 -6 1 -7 -5 -3 -7 4 -12 2 -12 -4 0 -7 -6 -10 -13 -7 -8
3 -14 -1 -14 -9 0 -7 4 -11 8 -9 4 3 23 -11 41 -29 39 -39 36 -61 -8 -54 -24
3 -29 0 -29 -18 0 -12 10 -25 23 -32 15 -7 20 -7 15 0 -3 7 -1 8 5 4 8 -5 12
-40 12 -98 0 -87 -1 -89 -17 -71 -10 10 -13 12 -8 3 9 -13 8 -13 -7 -2 -10 8
-14 20 -11 29 5 12 3 14 -7 8 -10 -6 -12 -4 -7 7 3 9 2 19 -3 24 -5 5 -10 27
-12 48 -3 43 -43 95 -67 87 -8 -2 -12 0 -9 5 4 5 -17 8 -48 6 -30 -2 -54 -6
-54 -8 0 -13 45 -52 53 -47 6 3 7 1 3 -5 -4 -7 -2 -12 5 -12 7 0 9 -3 6 -7 -4
-3 -2 -12 3 -18 6 -7 11 -31 13 -54 1 -22 6 -41 10 -41 5 0 6 -4 2 -9 -7 -12
35 -52 47 -45 4 3 8 1 8 -4 0 -5 23 -8 50 -8 l50 1 0 -116 c0 -91 -3 -119 -15
-129 -8 -7 -21 -10 -29 -7 -10 4 -12 0 -9 -14 5 -17 15 -19 94 -19 81 0 88 2
86 19 0 11 -5 17 -10 14 -4 -3 -15 3 -23 13 -9 11 -12 13 -8 5 5 -9 3 -12 -4
-7 -8 5 -12 47 -12 124 l0 117 55 -2 c45 -1 60 2 78 20 13 12 16 18 7 12 -9
-5 -7 -1 5 10 13 14 21 36 24 70 2 28 8 53 15 57 6 4 7 8 2 8 -4 0 0 8 11 18
10 9 12 13 3 7 -13 -9 -13 -8 -2 7 8 9 20 14 27 12 9 -4 13 1 12 14 -1 17 -10
21 -51 24 -44 3 -55 -1 -82 -24 -21 -19 -31 -37 -32 -58 -1 -55 -14 -93 -38
-115 -13 -12 -21 -25 -17 -28 3 -4 1 -7 -6 -7 -8 0 -11 25 -9 93 3 81 5 92 21
89 10 -2 17 3 17 13 0 8 5 15 10 15 6 0 10 6 10 13 0 8 -17 12 -57 10 -52 -1
-56 0 -38 13 10 8 15 14 10 14 -5 0 0 7 11 16 10 8 12 12 4 8 -9 -4 -12 -3 -7
2 5 5 13 10 18 10 5 1 13 2 18 3 17 2 6 49 -14 62 -19 11 -19 11 -5 -7 14 -18
14 -18 -2 -5 -10 7 -16 17 -13 21 6 10 -22 40 -36 40 -6 0 -7 -4 -4 -10z"/>
</g>
</svg>
